<svg version="1.0" xmlns="http://www.w3.org/2000/svg"
  width="173" height="42" width="1024.000000pt" height="1024.000000pt" viewBox="0 0 1024.000000 1024.000000"
 preserveAspectRatio="xMidYMid meet">

<g transform="translate(0.000000,1024.000000) scale(0.100000,-0.100000)"
fill="#000000" stroke="none">
<path d="M7243 7560 c0 -25 2 -35 4 -22 2 12 2 32 0 45 -2 12 -4 2 -4 -23z"/>
<path d="M2335 7503 c72 -3 112 -8 117 -16 5 -8 8 -7 8 6 0 15 -11 17 -117 15
l-118 -2 110 -3z"/>
<path d="M7960 7501 l125 -6 3 -201 c3 -224 -7 -291 -28 -187 -13 64 -40 107
-40 64 0 -11 -4 -21 -10 -21 -5 0 -11 -19 -11 -42 -1 -24 -3 -35 -6 -25 -8 29
-74 23 -106 -11 -15 -15 -27 -33 -27 -40 0 -7 -4 -12 -10 -12 -5 0 -10 -10
-10 -22 0 -38 -19 1 -21 42 -1 33 -2 33 -9 -10 -5 -25 -9 -610 -9 -1299 l-1
-1255 140 -138 c77 -75 141 -143 141 -150 1 -7 5 1 9 17 4 17 8 766 9 1666 l1
1637 -132 -1 -133 -1 125 -5z m-120 -551 c0 -5 -4 -10 -10 -10 -5 0 -10 5 -10
10 0 6 5 10 10 10 6 0 10 -4 10 -10z"/>
<path d="M2453 7360 c0 -47 2 -66 4 -42 2 23 2 61 0 85 -2 23 -4 4 -4 -43z"/>
<path d="M3657 7383 c18 -2 50 -2 70 0 21 2 7 4 -32 4 -38 0 -55 -2 -38 -4z"/>
<path d="M6628 7383 c12 -2 32 -2 45 0 12 2 2 4 -23 4 -25 0 -35 -2 -22 -4z"/>
<path d="M3798 7373 c6 -2 18 -2 25 0 6 3 1 5 -13 5 -14 0 -19 -2 -12 -5z"/>
<path d="M6538 7373 c7 -3 16 -2 19 1 4 3 -2 6 -13 5 -11 0 -14 -3 -6 -6z"/>
<path d="M3419 7308 c4 -77 -19 -217 -30 -178 -6 21 -7 22 -9 5 -2 -17 -3 -16
-10 5 -7 23 -8 22 -9 -10 -1 -35 -1 -35 -41 -32 -49 5 -53 22 -5 22 24 0 35 5
35 15 0 11 -11 15 -39 15 -22 0 -44 -6 -51 -15 -7 -8 -21 -15 -31 -15 -11 0
-35 -18 -55 -40 -20 -22 -43 -40 -52 -40 -8 0 -12 -3 -8 -7 7 -7 -52 -73 -65
-73 -4 0 -10 19 -12 43 -2 23 -5 -462 -6 -1078 -1 -616 -4 -1135 -5 -1152 -4
-37 -14 -36 109 -9 239 53 622 58 872 11 235 -45 483 -157 691 -313 190 -142
299 -256 429 -447 32 -47 61 -85 64 -85 3 0 20 23 39 51 186 287 469 537 758
669 255 117 443 155 757 154 237 -1 373 -20 488 -69 16 -7 17 59 15 1311 -1
726 -5 1240 -8 1144 -4 -96 -7 -176 -8 -177 -1 -2 -6 -3 -12 -3 -5 0 -10 24
-10 54 l0 54 -47 -49 c-41 -41 -54 -49 -85 -49 -21 0 -38 5 -38 10 0 6 -10 10
-22 10 -12 0 -18 -3 -15 -7 9 -9 -23 -43 -40 -43 -7 0 -16 -7 -19 -15 -4 -8
-12 -15 -19 -15 -7 0 -16 -8 -19 -17 -4 -10 -14 -31 -22 -47 -14 -25 -16 -119
-18 -822 l-1 -794 -138 0 c-466 0 -878 -139 -1182 -400 -101 -87 -103 -88
-110 -63 -8 34 -4 1226 5 1518 9 260 24 333 92 456 45 80 171 226 244 282 29
23 51 43 49 46 -3 2 -11 -2 -19 -8 -8 -7 -20 -10 -25 -6 -7 4 -8 -1 -4 -12 3
-10 3 -15 -2 -11 -4 4 -23 -7 -41 -26 -18 -19 -35 -32 -38 -29 -2 2 -7 -5 -11
-16 -3 -12 -10 -19 -15 -16 -5 3 -13 -2 -18 -11 -6 -10 -12 -13 -16 -6 -3 6 4
18 16 26 16 11 18 16 7 16 -23 0 -39 -21 -39 -53 0 -19 -10 -38 -32 -57 -17
-16 -34 -28 -36 -25 -6 6 25 35 37 35 6 0 11 5 11 10 0 17 -22 11 -47 -12 -13
-12 -23 -17 -23 -11 0 19 39 46 60 40 17 -4 21 -1 20 16 -4 43 0 54 23 65 l22
12 -25 -3 c-17 -1 -26 -9 -28 -24 -4 -30 -16 -29 -40 2 -19 24 -23 25 -145 25
-91 0 -126 3 -130 13 -3 9 -8 8 -22 -3 -17 -14 -17 -14 -1 18 10 19 15 36 13
39 -3 2 -8 -5 -12 -18 -6 -17 -9 -19 -17 -8 -8 11 -9 10 -4 -4 8 -24 -24 -88
-43 -85 -13 3 -30 29 -86 135 -9 18 -24 38 -33 45 -14 10 -15 10 -4 -2 6 -8
12 -19 12 -25 -1 -5 -10 1 -20 14 -11 13 -20 18 -20 13 0 -6 5 -14 11 -17 6
-4 8 -13 5 -21 -3 -8 0 -11 9 -8 9 4 16 -3 21 -21 4 -15 12 -24 19 -22 6 3 19
-9 29 -26 15 -29 15 -30 0 -9 -19 25 -42 29 -50 7 -4 -8 -12 -15 -20 -15 -8 0
-14 -4 -14 -10 0 -5 -22 -10 -50 -10 -38 0 -50 -4 -50 -15 0 -12 -15 -15 -79
-15 -66 0 -80 -3 -85 -17 -4 -10 -15 -33 -25 -52 l-18 -34 -22 22 c-13 13 -20
29 -17 37 3 8 1 12 -4 9 -5 -3 -14 9 -19 27 -9 31 -9 32 -10 6 -1 -15 4 -30 9
-33 6 -3 10 -11 10 -18 0 -6 -11 4 -24 23 -19 28 -21 38 -12 50 10 13 9 13 -8
0 -18 -14 -19 -13 -14 8 4 12 2 20 -3 16 -5 -3 -9 1 -9 8 0 9 -3 9 -10 -2 -8
-13 -11 -12 -24 5 -9 11 -16 15 -16 8 0 -6 8 -18 18 -25 10 -7 44 -44 76 -83
51 -61 64 -70 91 -69 26 1 31 -2 30 -21 0 -12 -7 -30 -15 -40 -14 -17 -13 -18
4 -12 15 6 17 5 8 -6 -9 -10 -7 -23 8 -51 10 -21 27 -71 36 -111 10 -41 20
-72 23 -70 3 1 6 -22 6 -53 1 -83 6 -1695 5 -1706 0 -5 -13 5 -30 22 -86 91
-282 220 -436 288 -110 49 -321 113 -439 134 -85 15 -181 23 -327 27 l-208 6
-1 81 c-1 45 -1 514 0 1044 1 529 -1 962 -6 962 -4 0 -6 -28 -4 -62z m1735
-317 c-7 -7 -33 33 -34 49 0 8 8 2 19 -15 10 -16 17 -32 15 -34z m40 -17 c9
-24 7 -27 -9 -10 -17 17 -19 26 -6 26 5 0 12 -7 15 -16z m368 -108 c7 4 2 -4
-12 -17 -14 -14 -27 -24 -29 -22 -3 2 0 8 7 15 8 8 8 17 1 32 -10 20 -9 20 5
2 9 -11 20 -15 28 -10z m-56 -94 c-17 -34 -50 -65 -40 -38 3 9 10 16 16 16 5
0 6 10 3 23 -4 15 -3 18 3 9 7 -11 10 -11 15 2 4 9 9 16 12 16 3 0 -1 -13 -9
-28z"/>
<path d="M3853 7363 c9 -2 23 -2 30 0 6 3 -1 5 -18 5 -16 0 -22 -2 -12 -5z"/>
<path d="M6458 7363 c6 -2 18 -2 25 0 6 3 1 5 -13 5 -14 0 -19 -2 -12 -5z"/>
<path d="M6398 7353 c7 -3 16 -2 19 1 4 3 -2 6 -13 5 -11 0 -14 -3 -6 -6z"/>
<path d="M3980 7340 c34 -11 60 -11 35 0 -11 5 -29 8 -40 8 -16 0 -15 -2 5 -8z"/>
<path d="M6267 7330 c-61 -16 -96 -31 -71 -30 22 2 177 49 159 49 -11 0 -51
-8 -88 -19z"/>
<path d="M4058 7323 c7 -3 16 -2 19 1 4 3 -2 6 -13 5 -11 0 -14 -3 -6 -6z"/>
<path d="M4975 7293 c10 -18 22 -30 26 -27 11 6 21 -14 14 -26 -5 -8 -12 -7
-23 2 -14 11 -14 9 1 -8 9 -11 14 -23 11 -27 -4 -3 5 -4 20 -1 14 2 26 0 26
-6 0 -5 6 -10 13 -10 7 1 4 8 -8 18 -11 10 -21 24 -23 32 -2 8 -20 31 -39 50
l-37 35 19 -32z m52 -68 c0 -8 -4 -12 -9 -9 -5 3 -6 10 -3 15 9 13 12 11 12
-6z"/>
<path d="M6135 7285 c-25 -12 -26 -14 -5 -9 28 7 60 23 45 23 -5 0 -23 -6 -40
-14z"/>
<path d="M6034 7245 c-27 -14 -53 -25 -57 -25 -5 0 -21 -9 -37 -20 -15 -11
-31 -16 -35 -12 -5 4 -5 2 -1 -5 3 -7 -2 -14 -13 -18 -10 -3 -27 -15 -37 -27
-11 -13 2 -7 34 15 29 21 90 55 135 77 45 22 77 40 71 40 -6 0 -33 -11 -60
-25z"/>
<path d="M2403 7225 c0 -22 2 -30 4 -17 2 12 2 30 0 40 -3 9 -5 -1 -4 -23z"/>
<path d="M2460 7235 c0 -14 -4 -25 -9 -25 -5 0 -9 -6 -8 -12 0 -7 -1 -26 -3
-43 -3 -28 -3 -27 -10 10 -6 31 -7 34 -9 13 -1 -30 -21 -40 -21 -11 0 13 -8 9
-33 -15 -37 -36 -47 -39 -47 -15 0 15 -1 15 -18 0 -10 -10 -22 -17 -26 -17
-14 0 -34 -27 -39 -51 -3 -17 -5 -13 -6 14 -2 61 -19 42 -26 -30 -9 -99 -12
-106 -15 -33 -2 59 -3 62 -12 35 -13 -36 -24 -2404 -13 -2703 l7 -193 24 32
c13 18 21 37 17 42 -3 6 -2 7 4 4 6 -4 28 13 50 36 22 23 76 76 119 117 l79
75 1 1398 c0 768 -1 1397 -3 1397 -2 0 -3 -11 -3 -25z m-33 -177 c-2 -13 -4
-3 -4 22 0 25 2 35 4 23 2 -13 2 -33 0 -45z m20 -5 c-3 -10 -5 -2 -5 17 0 19
2 27 5 18 2 -10 2 -26 0 -35z m-220 -60 c-3 -10 -5 -2 -5 17 0 19 2 27 5 18 2
-10 2 -26 0 -35z m-27 -2778 c0 -8 -2 -15 -4 -15 -2 0 -6 7 -10 15 -3 8 -1 15
4 15 6 0 10 -7 10 -15z"/>
<path d="M4260 7255 c0 -7 61 -37 66 -33 2 3 -12 12 -31 21 -19 9 -35 15 -35
12z"/>
<path d="M4960 7243 c0 -6 8 -17 18 -24 16 -13 16 -13 2 6 -8 11 -16 22 -17
24 -2 2 -3 0 -3 -6z"/>
<path d="M4462 7151 c-11 -7 -11 -9 0 -14 9 -3 15 1 15 9 0 8 -1 14 -1 14 -1
0 -7 -4 -14 -9z"/>
<path d="M3033 7085 c0 -22 2 -30 4 -17 2 12 2 30 0 40 -3 9 -5 -1 -4 -23z"/>
<path d="M7223 7080 c0 -25 2 -35 4 -22 2 12 2 32 0 45 -2 12 -4 2 -4 -23z"/>
<path d="M4519 7097 c19 -24 55 -44 49 -27 -2 6 -6 10 -10 8 -3 -2 -16 6 -29
17 -19 16 -21 16 -10 2z"/>
<path d="M5700 7099 c0 -5 5 -7 10 -4 6 3 10 8 10 11 0 2 -4 4 -10 4 -5 0 -10
-5 -10 -11z"/>
<path d="M5040 7076 c0 -9 -6 -16 -12 -15 -29 3 -45 -2 -45 -16 0 -10 8 -13
26 -9 45 10 49 12 47 28 -3 23 -16 32 -16 12z"/>
<path d="M5705 7070 c-3 -5 -1 -10 4 -10 6 0 11 5 11 10 0 6 -2 10 -4 10 -3 0
-8 -4 -11 -10z"/>
<path d="M4711 6984 c0 -11 3 -14 6 -6 3 7 2 16 -1 19 -3 4 -6 -2 -5 -13z"/>
<path d="M4743 6857 c-4 -6 -1 -7 7 -2 10 6 12 4 7 -8 -7 -19 10 -34 24 -20 5
5 7 16 4 25 -7 17 -33 20 -42 5z"/>
<path d="M1450 4996 l0 -1724 31 -58 c38 -73 54 -91 104 -117 58 -31 128 -27
450 26 450 75 745 109 1328 157 203 16 673 33 783 27 165 -8 207 -42 234 -192
13 -76 41 -148 67 -177 79 -87 394 -174 673 -185 208 -8 492 42 657 117 113
51 151 102 178 240 21 105 43 142 103 172 45 22 54 23 272 21 440 -5 875 -38
1555 -119 142 -17 452 -65 610 -94 105 -20 143 -17 201 13 45 23 112 103 119
141 3 17 7 806 8 1754 l2 1723 -167 -2 -168 -1 -1 -196 c-1 -108 -2 -825 -3
-1594 0 -768 -3 -1399 -6 -1401 -3 -3 -37 0 -75 8 -390 74 -823 130 -1310 170
-268 22 -707 30 -929 16 -409 -25 -438 -38 -559 -242 -67 -114 -120 -166 -212
-212 -94 -47 -145 -60 -235 -60 -177 0 -333 109 -469 325 -55 88 -106 132
-172 151 -104 30 -293 42 -649 41 -603 -1 -923 -29 -1710 -149 -58 -9 -163
-27 -234 -41 -71 -13 -130 -24 -132 -24 -2 0 -4 722 -4 1605 l0 1605 -170 0
-170 0 0 -1724z"/>
<path d="M3575 4284 c-16 -2 -75 -9 -130 -15 -289 -31 -590 -112 -925 -249
-172 -71 -253 -109 -258 -122 -2 -4 -10 -8 -18 -8 -9 0 -13 -3 -11 -7 3 -5 -6
-9 -20 -10 -14 0 -28 -5 -32 -10 -8 -11 -79 -43 -96 -43 -8 0 -15 -4 -15 -10
0 -14 5 -13 113 23 53 19 94 37 90 42 -5 4 -2 5 5 1 7 -4 54 2 105 14 287 68
722 128 1092 151 307 19 704 0 962 -45 105 -19 146 -30 268 -72 136 -46 145
-45 99 11 -74 88 -202 178 -333 235 -193 84 -334 109 -641 115 -124 2 -238 2
-255 -1z"/>
<path d="M6330 4280 c-138 -16 -283 -51 -384 -92 -109 -45 -229 -115 -220
-129 3 -5 -1 -7 -8 -4 -7 2 -53 -34 -103 -80 l-90 -84 40 6 c22 3 92 23 155
44 139 46 349 83 564 100 551 42 1588 -81 1869 -223 22 -11 41 -17 43 -15 9 9
-147 88 -158 81 -7 -4 -8 -3 -4 4 12 20 -275 152 -499 231 -160 56 -441 125
-595 146 -144 19 -500 28 -610 15z m1685 -390 c-3 -5 -12 -10 -18 -10 -7 0 -6
4 3 10 19 12 23 12 15 0z"/>
<path d="M27 103 c-25 -4 -27 -8 -27 -54 0 -48 1 -49 30 -49 30 0 30 1 30 55
0 30 -1 54 -2 54 -2 -1 -15 -4 -31 -6z"/>
</g>
</svg>